<?xml version="1.0" encoding="UTF-8"?>
<!DOCTYPE svg PUBLIC "-//W3C//DTD SVG 1.1//EN" "http://www.w3.org/Graphics/SVG/1.1/DTD/svg11.dtd">
<svg xmlns="http://www.w3.org/2000/svg" version="1.1" width="512px" height="512px" style="shape-rendering:geometricPrecision; text-rendering:geometricPrecision; image-rendering:optimizeQuality; fill-rule:evenodd; clip-rule:evenodd" xmlns:xlink="http://www.w3.org/1999/xlink">
<g><path style="opacity:0.935" fill="#000000" d="M 191.5,-0.5 C 197.167,-0.5 202.833,-0.5 208.5,-0.5C 264.664,5.53194 320.998,11.3653 377.5,17C 381.613,20.5094 382.446,24.6761 380,29.5C 378.316,31.0656 376.316,32.0656 374,32.5C 314.852,26.3352 255.686,20.3352 196.5,14.5C 195.101,30.1607 193.767,45.8274 192.5,61.5C 238.224,55.6346 283.891,49.3013 329.5,42.5C 336.411,43.2014 341.578,46.5347 345,52.5C 347.959,67.0447 350.125,81.7114 351.5,96.5C 365.675,95.5551 379.842,94.5551 394,93.5C 402.052,94.5575 407.385,98.8908 410,106.5C 411.888,135.153 413.555,163.82 415,192.5C 418.494,194.377 422.327,195.044 426.5,194.5C 431.235,143.812 436.235,93.1451 441.5,42.5C 441.43,41.2284 441.097,40.0617 440.5,39C 430.104,37.9943 419.771,36.661 409.5,35C 405.323,30.0462 405.657,25.3796 410.5,21C 420.522,21.0015 430.522,21.6681 440.5,23C 450.809,23.9751 456.475,29.6418 457.5,40C 454.334,70.4892 451.334,100.989 448.5,131.5C 461.894,131.075 475.227,131.575 488.5,133C 498.031,137.194 503.864,144.361 506,154.5C 506.667,266.167 506.667,377.833 506,489.5C 503.399,500.929 496.566,508.263 485.5,511.5C 364.167,511.5 242.833,511.5 121.5,511.5C 116.247,506.709 116.247,501.875 121.5,497C 241.167,496.667 360.833,496.333 480.5,496C 485.235,494.932 488.402,492.099 490,487.5C 490.5,395.167 490.667,302.834 490.5,210.5C 368.166,210.667 245.833,210.5 123.5,210C 121.919,209.293 120.419,208.46 119,207.5C 112.342,187.195 105.842,166.861 99.5,146.5C 77.1642,146.333 54.8308,146.5 32.5,147C 26.8997,147.541 23.0664,150.374 21,155.5C 20.3333,266.167 20.3333,376.833 21,487.5C 22.5981,492.099 25.7647,494.932 30.5,496C 48.8333,496.333 67.1667,496.667 85.5,497C 88.8587,498.135 90.192,500.468 89.5,504C 89.8898,507.124 88.8898,509.624 86.5,511.5C 66.1667,511.5 45.8333,511.5 25.5,511.5C 14.4339,508.263 7.60059,500.929 5,489.5C 4.33333,377.833 4.33333,266.167 5,154.5C 7.13572,144.361 12.969,137.194 22.5,133C 40.4444,131.554 58.4444,131.054 76.5,131.5C 74.6944,119.027 73.0278,106.527 71.5,94C 71.4076,84.4249 76.0742,78.7583 85.5,77C 115.824,72.6918 146.157,68.5252 176.5,64.5C 177.673,46.1008 179.507,27.7675 182,9.5C 184.022,4.98004 187.189,1.6467 191.5,-0.5 Z M 326.5,58.5 C 328.451,58.2267 329.951,58.8934 331,60.5C 332.466,72.7678 334.3,84.9344 336.5,97C 272.481,100.393 208.481,104.06 144.5,108C 136.204,111.587 132.537,117.92 133.5,127C 134.631,149.525 135.964,172.025 137.5,194.5C 135.208,194.756 133.041,194.423 131,193.5C 124.729,173.352 118.062,153.352 111,133.5C 110.25,132.874 109.416,132.374 108.5,132C 103.177,131.501 97.8437,131.334 92.5,131.5C 90.4238,118.557 88.7571,105.557 87.5,92.5C 167.349,81.5214 247.016,70.1881 326.5,58.5 Z M 386.5,109.5 C 389.167,109.5 391.833,109.5 394.5,109.5C 396.271,137.824 397.938,166.157 399.5,194.5C 317.167,194.5 234.833,194.5 152.5,194.5C 151.43,170.503 150.43,146.503 149.5,122.5C 228.69,118.824 307.69,114.49 386.5,109.5 Z M 446.5,146.5 C 457.172,146.333 467.839,146.5 478.5,147C 484.1,147.541 487.934,150.374 490,155.5C 490.5,168.496 490.667,181.496 490.5,194.5C 474.5,194.5 458.5,194.5 442.5,194.5C 443.773,178.495 445.107,162.495 446.5,146.5 Z M 127.5,371.5 C 212.833,371.5 298.167,371.5 383.5,371.5C 383.5,388.5 383.5,405.5 383.5,422.5C 298.167,422.5 212.833,422.5 127.5,422.5C 127.5,405.5 127.5,388.5 127.5,371.5 Z"/></g>
<g><path style="opacity:0.928" fill="#000000" d="M 118.5,355.5 C 209.834,355.333 301.167,355.5 392.5,356C 394.848,356.346 396.681,357.513 398,359.5C 398.667,384.5 398.667,409.5 398,434.5C 397.167,436 396,437.167 394.5,438C 301.833,438.667 209.167,438.667 116.5,438C 115,437.167 113.833,436 113,434.5C 112.333,409.5 112.333,384.5 113,359.5C 114.5,357.531 116.333,356.198 118.5,355.5 Z M 127.5,371.5 C 127.5,388.5 127.5,405.5 127.5,422.5C 212.833,422.5 298.167,422.5 383.5,422.5C 383.5,405.5 383.5,388.5 383.5,371.5C 298.167,371.5 212.833,371.5 127.5,371.5 Z"/></g>
<g><path style="opacity:0.914" fill="#000000" d="M 162.5,389.5 C 224.501,389.333 286.501,389.5 348.5,390C 351.516,391.529 352.849,394.029 352.5,397.5C 352.437,402.064 350.104,404.564 345.5,405C 285.5,405.667 225.5,405.667 165.5,405C 158.924,403.825 156.757,399.992 159,393.5C 159.69,391.65 160.856,390.316 162.5,389.5 Z"/></g>
</svg>
