<?xml version="1.0" encoding="UTF-8"?>
<!DOCTYPE svg PUBLIC "-//W3C//DTD SVG 1.1//EN" "http://www.w3.org/Graphics/SVG/1.1/DTD/svg11.dtd">
<svg xmlns="http://www.w3.org/2000/svg" version="1.1" width="512px" height="512px" style="shape-rendering:geometricPrecision; text-rendering:geometricPrecision; image-rendering:optimizeQuality; fill-rule:evenodd; clip-rule:evenodd" xmlns:xlink="http://www.w3.org/1999/xlink">
<g><path style="opacity:0.966" fill="#000000" d="M 304.5,14.5 C 351.168,14.3333 397.835,14.5 444.5,15C 474.333,19.5 491.5,36.6667 496,66.5C 496.667,112.833 496.667,159.167 496,205.5C 494.277,231.934 484.61,254.934 467,274.5C 397.139,344.694 326.973,414.528 256.5,484C 233.167,499.333 209.833,499.333 186.5,484C 133.333,430.833 80.1667,377.667 27,324.5C 14.9253,307.238 12.2586,288.571 19,268.5C 21.6628,261.832 25.3295,255.832 30,250.5C 99.8333,180.667 169.667,110.833 239.5,41C 258.497,25.498 280.163,16.6647 304.5,14.5 Z M 301.5,53.5 C 349.168,53.3333 396.834,53.5 444.5,54C 450.667,56.1667 454.833,60.3333 457,66.5C 457.972,115.865 457.638,165.199 456,214.5C 453.308,226.551 447.974,237.218 440,246.5C 371.5,315 303,383.5 234.5,452C 225.833,459.333 217.167,459.333 208.5,452C 158.361,400.861 107.861,350.028 57,299.5C 52.2603,291.937 52.5937,284.604 58,277.5C 127.5,208 197,138.5 266.5,69C 277.034,61.0618 288.701,55.8951 301.5,53.5 Z M 354.5,131.5 C 365.045,129.855 372.545,133.855 377,143.5C 378.864,159.635 371.697,167.468 355.5,167C 341.933,161.306 338.433,151.806 345,138.5C 347.825,135.524 350.992,133.191 354.5,131.5 Z"/></g>
<g><path style="opacity:0.969" fill="#000000" d="M 352.5,92.5 C 379.926,90.79 399.759,102.123 412,126.5C 421.751,154.338 415.251,177.505 392.5,196C 369.449,209.964 346.782,209.298 324.5,194C 303.494,174.98 297.994,152.147 308,125.5C 317.325,107.001 332.158,96.001 352.5,92.5 Z M 354.5,131.5 C 350.992,133.191 347.825,135.524 345,138.5C 338.433,151.806 341.933,161.306 355.5,167C 371.697,167.468 378.864,159.635 377,143.5C 372.545,133.855 365.045,129.855 354.5,131.5 Z"/></g>
</svg>
