<?xml version="1.0" encoding="UTF-8"?>
<!DOCTYPE svg PUBLIC "-//W3C//DTD SVG 1.1//EN" "http://www.w3.org/Graphics/SVG/1.1/DTD/svg11.dtd">
<svg xmlns="http://www.w3.org/2000/svg" version="1.1" width="512px" height="512px" style="shape-rendering:geometricPrecision; text-rendering:geometricPrecision; image-rendering:optimizeQuality; fill-rule:evenodd; clip-rule:evenodd" xmlns:xlink="http://www.w3.org/1999/xlink">
<g><path style="opacity:0.974" fill="#000000" d="M 233.5,-0.5 C 248.167,-0.5 262.833,-0.5 277.5,-0.5C 360.198,8.751 424.698,47.751 471,116.5C 471.333,96.5 471.667,76.5 472,56.5C 476.507,44.8262 485.007,40.3262 497.5,43C 504.682,45.0166 509.348,49.5166 511.5,56.5C 511.5,81.8333 511.5,107.167 511.5,132.5C 505.013,161.153 487.347,178.653 458.5,185C 431.438,185.974 404.438,185.64 377.5,184C 366.028,176.68 363.195,166.846 369,154.5C 371.812,150.338 375.645,147.505 380.5,146C 400.5,145.667 420.5,145.333 440.5,145C 397.508,77.4045 335.675,42.5712 255,40.5C 175.99,42.8246 114.99,76.8246 72,142.5C 35.5424,205.731 30.5424,271.397 57,339.5C 96.8686,422.962 163.202,466.962 256,471.5C 264.755,470.35 273.588,470.184 282.5,471C 294.519,475.87 299.019,484.704 296,497.5C 292.838,505.647 287.005,510.313 278.5,511.5C 263.5,511.5 248.5,511.5 233.5,511.5C 143.445,500.906 75.612,456.572 30,378.5C 13.1449,346.722 2.97822,313.055 -0.5,277.5C -0.5,262.833 -0.5,248.167 -0.5,233.5C 10.0943,143.445 54.4276,75.612 132.5,30C 164.278,13.1449 197.945,2.97822 233.5,-0.5 Z"/></g>
<g><path style="opacity:0.979" fill="#000000" d="M 249.5,75.5 C 261.986,73.3196 270.486,77.9862 275,89.5C 275.667,146.833 275.667,204.167 275,261.5C 274.194,264.446 272.861,267.112 271,269.5C 244.167,296.333 217.333,323.167 190.5,350C 181.744,356.771 172.744,357.105 163.5,351C 155.406,342.869 153.906,333.702 159,323.5C 183.972,297.528 209.305,271.861 235,246.5C 235.333,194.167 235.667,141.833 236,89.5C 238.017,82.3185 242.517,77.6518 249.5,75.5 Z"/></g>
<g><path style="opacity:0.952" fill="#000000" d="M 482.5,285.5 C 497.822,284.313 506.156,291.313 507.5,306.5C 505.783,316.366 503.283,326.033 500,335.5C 493.38,344.928 484.546,347.762 473.5,344C 466.096,340.086 462.096,333.92 461.5,325.5C 463.218,314.849 466.051,304.516 470,294.5C 473.222,290.143 477.389,287.143 482.5,285.5 Z"/></g>
<g><path style="opacity:0.952" fill="#000000" d="M 442.5,375.5 C 458.807,375.971 466.64,384.305 466,400.5C 465.241,403.785 463.908,406.785 462,409.5C 456.952,415.759 451.786,421.926 446.5,428C 434.017,435.085 423.517,432.919 415,421.5C 411.818,414.359 412.151,407.359 416,400.5C 421.793,393.039 427.959,385.872 434.5,379C 437.158,377.522 439.825,376.355 442.5,375.5 Z"/></g>
<g><path style="opacity:0.957" fill="#000000" d="M 365.5,441.5 C 385.814,440.977 393.981,450.643 390,470.5C 388.539,474.26 386.039,477.093 382.5,479C 373.269,484.285 363.602,488.451 353.5,491.5C 336.507,488.316 330.341,478.316 335,461.5C 337.5,457.667 340.667,454.5 344.5,452C 351.592,448.454 358.592,444.954 365.5,441.5 Z"/></g>
</svg>
